PathFileType	4	(x/y/z)	S08_M20_T04
DataRate	CameraRate	NumFrames	NumMarkers	Units	OrigDataRate	OrigDataStartFrame	OrigNumFrames
240	240	5	51	mm	240	116	463
Frame#	Time	Sternum			R.Acromium			L.Acromium			Top.Head			R.ASIS			L.ASIS			R.PSIS			L.PSIS			R.Great.Tro			L.Great.Tro			R.Iliac.Crest			L.Iliac.Crest			V.Sacral			R.Thigh.Upper.Post			R.Thigh.Lower.Ant			R.Thigh.Lower.Post			R.Thigh.Upper.Ant			R.Knee.Lat			R.Knee.Med			R.Shank.Upper.Post			R.Shank.Lower.Ant			R.Shank.Lower.Post			R.Shank.Upper.Ant			R.Ankle.Lat			R.Ankle.Med			R.Heel.Upper			R.Heel.Med			R.Heel.Lat			R.Toe.Lat			R.Toe.Med			R.Toe.Tip			L.Thigh.Upper.Post			L.Thigh.Lower.Ant			L.Thigh.Lower.Post			L.Thigh.Upper.Ant			L.Knee.Lat			L.Knee.Med			L.Shank.Upper.Post			L.Shank.Lower.Ant			L.Shank.Lower.Post			L.Shank.Upper.Ant			L.Ankle.Lat			L.Ankle.Med			L.Heel.Upper			L.Heel.Med			L.Heel.Lat			L.Toe.Lat			L.Toe.Med			L.Toe.Tip			Cervical.Spine			Back			
		X1	Y1	Z1	X2	Y2	Z2	X3	Y3	Z3	X4	Y4	Z4	X5	Y5	Z5	X6	Y6	Z6	X7	Y7	Z7	X8	Y8	Z8	X9	Y9	Z9	X10	Y10	Z10	X11	Y11	Z11	X12	Y12	Z12	X13	Y13	Z13	X14	Y14	Z14	X15	Y15	Z15	X16	Y16	Z16	X17	Y17	Z17	X18	Y18	Z18	X19	Y19	Z19	X20	Y20	Z20	X21	Y21	Z21	X22	Y22	Z22	X23	Y23	Z23	X24	Y24	Z24	X25	Y25	Z25	X26	Y26	Z26	X27	Y27	Z27	X28	Y28	Z28	X29	Y29	Z29	X30	Y30	Z30	X31	Y31	Z31	X32	Y32	Z32	X33	Y33	Z33	X34	Y34	Z34	X35	Y35	Z35	X36	Y36	Z36	X37	Y37	Z37	X38	Y38	Z38	X39	Y39	Z39	X40	Y40	Z40	X41	Y41	Z41	X42	Y42	Z42	X43	Y43	Z43	X44	Y44	Z44	X45	Y45	Z45	X46	Y46	Z46	X47	Y47	Z47	X48	Y48	Z48	X49	Y49	Z49	X50	Y50	Z50	X51	Y51	Z51	

116	0.47917	-870.8	1216.2	319.03	-980.19	1450.8	497.63	-1007.8	1481.4	165.99	-968.89	1769.7	345.38	-877.28	1002.4	429.06	-890.11	1005.3	196.54	-1083.5	1025.4	372.17	-1087.8	1032.3	277.69	-931.09	890.98	504.76	-995.97	904.95	138.09	-970.53	1067.4	484.5	-991.58	1087.3	176.44	-1103.2	988.76	324.74	-867.97	696.33	493.03	-756.86	640	454.98	-823.39	617.73	471.72	-796.32	725.14	474.42	-744.47	543.15	451.47	-777.58	530.17	327.57	-756.44	352.94	467.69	-682.82	307	442.63	-737.78	278.27	462.16	-701.49	382.84	451.36	-692.26	111.66	430.9	-671.37	135.38	351.05	-728.81	61.551	382.84	-705.33	40.429	354.98	-712.48	38.845	416.34	NaN	NaN	NaN	-534.05	108.78	343.11	-481.07	148.26	388.59	-1049.4	706.71	154.8	-981.03	603.21	182.64	-1047.1	617.34	172.21	-978.95	689.13	157.44	-1058.4	511.42	197.74	-1060.6	513.92	323	-1158.4	348.19	196.79	-1115.6	249.4	227.39	-1177	280	213.08	-1104.6	319.54	211.53	-1203.5	105.29	240.08	-1181.9	105.73	327.47	-1259	78.021	290.66	-1247.6	42.595	318.72	-1254.3	53.733	255.56	-1080.2	41.116	216.27	-1057.4	36.978	331.58	-994.1	51.732	281.63	-1060.4	1507.8	327.65	-1108.8	1224.1	339.58
117	0.48333	-865.11	1215.1	319.17	-974.55	1449.8	497.85	-1002	1480.4	166.25	-963.24	1768.7	345.66	-871.44	1001.4	429.11	-884.74	1004.2	196.63	-1077.7	1024.4	372.24	-1081.9	1031.4	277.96	-925.3	890.06	504.92	-990.89	904.05	138.19	-964.71	1066.4	484.61	-986.07	1086.3	176.51	-1097.5	987.83	325.01	-862.74	695.08	493.32	-751.73	638.64	455.26	-818.3	616.42	471.93	-791.04	723.77	474.72	-739.13	542.08	451.52	-772.48	528.83	327.66	-747.41	351.73	467.53	-672.88	307.35	442.18	-727.24	277.44	461.77	-693.11	382.77	451.05	-678	111.7	429.99	-657.84	136.06	350.12	-713.69	60.963	381.93	-689.68	40.285	353.92	-696.64	38.413	415.33	NaN	NaN	NaN	-519.95	112.47	341.75	-467.72	153.07	387.16	-1045.7	706.41	154.65	-978.15	602.44	182.56	-1044	617.11	171.98	-975.45	688.32	157.32	-1056.3	511.14	197.65	-1058.4	513.63	322.94	-1157.2	348.43	196.8	-1114.9	249.39	227.36	-1176.1	280.31	213.14	-1103.4	319.51	211.42	-1203.2	105.54	240.28	-1181.6	105.91	327.61	-1258.9	78.206	290.89	-1247.5	42.712	318.87	-1254.2	53.981	255.73	-1080.2	41.09	216.26	-1057.3	36.878	331.58	-994.02	51.547	281.61	-1054.7	1506.7	327.85	-1102.9	1222.9	339.68
118	0.4875	-859.4	1214.1	319.31	-968.88	1448.7	498.09	-996.28	1479.4	166.52	-957.58	1767.6	345.95	-865.58	1000.4	429.14	-879.38	1003.1	196.72	-1071.9	1023.3	372.31	-1076.1	1030.4	278.24	-919.44	889.12	505.08	-985.79	903.12	138.28	-958.84	1065.4	484.72	-980.54	1085.2	176.58	-1091.8	986.87	325.28	-857.43	693.82	493.63	-746.56	637.26	455.52	-813.16	615.11	472.17	-785.69	722.39	475.02	-733.78	540.97	451.58	-767.39	527.47	327.77	-738.5	350.54	467.37	-663.12	307.7	441.74	-716.88	276.65	461.38	-684.85	382.68	450.76	-664.06	111.84	429.06	-644.6	136.82	349.19	-698.9	60.51	380.99	-674.35	40.269	352.82	-681.15	38.113	414.29	NaN	NaN	NaN	-506.19	116.12	340.43	-454.72	157.8	385.82	-1042	706.11	154.5	-975.24	601.65	182.47	-1040.9	616.85	171.78	-971.92	687.5	157.2	-1054.1	510.85	197.58	-1056.1	513.34	322.89	-1155.9	348.68	196.83	-1114.1	249.4	227.34	-1175.1	280.63	213.21	-1102.2	319.49	211.31	-1203	105.82	240.49	-1181.3	106.11	327.76	-1258.8	78.414	291.13	-1247.4	42.849	319.02	-1254.1	54.253	255.92	-1080.2	41.068	216.26	-1057.3	36.775	331.58	-993.93	51.352	281.58	-1049.1	1505.7	328.06	-1097.1	1221.8	339.79
119	0.49167	-853.66	1213	319.45	-963.2	1447.6	498.34	-990.5	1478.3	166.8	-951.92	1766.5	346.25	-859.68	999.43	429.17	-874.02	1001.9	196.83	-1066	1022.1	372.37	-1070.2	1029.4	278.55	-913.51	888.18	505.23	-980.67	902.17	138.38	-952.94	1064.4	484.84	-975	1084.1	176.64	-1086	985.88	325.57	-852.05	692.58	493.95	-741.33	635.86	455.76	-807.97	613.8	472.42	-780.26	721.01	475.32	-728.41	539.85	451.66	-762.3	526.09	327.89	-729.73	349.38	467.19	-653.55	308.04	441.32	-706.71	275.9	460.96	-676.72	382.57	450.47	-650.45	112.05	428.12	-631.66	137.62	348.26	-684.46	60.173	380.02	-659.4	40.364	351.71	-666.05	37.925	413.23	NaN	NaN	NaN	-492.79	119.73	339.17	-442.1	162.4	384.56	-1038.3	705.8	154.37	-972.3	600.86	182.39	-1037.7	616.59	171.61	-968.37	686.67	157.08	-1051.9	510.57	197.51	-1053.8	513.04	322.85	-1154.5	348.93	196.88	-1113.2	249.41	227.33	-1174.2	280.96	213.31	-1101	319.48	211.22	-1202.7	106.11	240.72	-1181	106.32	327.91	-1258.6	78.649	291.38	-1247.4	43.01	319.19	-1254	54.552	256.12	-1080.2	41.05	216.25	-1057.2	36.67	331.58	-993.84	51.147	281.55	-1043.4	1504.5	328.29	-1091.2	1220.7	339.91
120	0.49583	-847.9	1211.9	319.61	-957.49	1446.4	498.59	-984.7	1477.3	167.08	-946.25	1765.4	346.58	-853.76	998.39	429.19	-868.66	1000.7	196.95	-1060.2	1021	372.45	-1064.4	1028.4	278.87	-907.52	887.22	505.39	-975.53	901.19	138.48	-947.01	1063.3	484.96	-969.45	1083	176.72	-1080.2	984.86	325.86	-846.58	691.34	494.27	-736.03	634.45	455.98	-802.7	612.5	472.69	-774.75	719.63	475.62	-723	538.71	451.76	-757.2	524.7	328.02	-721.1	348.26	467	-644.16	308.36	440.91	-696.74	275.19	460.54	-668.7	382.43	450.2	-637.21	112.31	427.17	-619.04	138.47	347.33	-670.4	59.937	379.01	-644.85	40.551	350.57	-651.36	37.831	412.13	NaN	NaN	NaN	-479.76	123.24	337.97	-429.85	166.85	383.39	-1034.5	705.48	154.25	-969.32	600.06	182.31	-1034.5	616.3	171.47	-964.79	685.83	156.97	-1049.7	510.29	197.47	-1051.3	512.74	322.83	-1153.2	349.2	196.94	-1112.4	249.44	227.33	-1173.2	281.31	213.41	-1099.7	319.48	211.14	-1202.4	106.43	240.94	-1180.7	106.55	328.07	-1258.5	78.914	291.65	-1247.2	43.2	319.36	-1253.9	54.881	256.33	-1080.2	41.035	216.25	-1057.1	36.564	331.58	-993.74	50.933	281.53	-1037.7	1503.4	328.52	-1085.3	1219.5	340.03
